<svg height="511pt" viewBox="0 1 511.99988 511" width="511pt" xmlns="http://www.w3.org/2000/svg"><path d="m0 512.5 62.226562-15.554688-9.195312-65.761718zm0 0" fill="#242424"/><path d="m15.554688 450.273438-15.554688 62.226562 67.175781-67.175781zm0 0" fill="#434343"/><path d="m109.601562 360.472656-70.710937 113.136719 23.335937 23.335937 79.195313-19.800781zm0 0" fill="#fdad86"/><path d="m130.816406 381.683594-95.460937-10.605469-19.800781 79.195313 23.335937 23.335937zm0 0" fill="#fdd396"/><path d="m468.855469 149.710938 21.210937-21.214844c29.242188-29.242188 29.246094-76.820313 0-106.066406l-123.742187 95.460937zm0 0" fill="#fe6192"/><path d="m490.066406 22.429688c-29.242187-29.242188-76.820312-29.242188-106.0625 0l-21.214844 21.214843 17.675782 88.386719zm0 0" fill="#fd8777"/><path d="m323.898438 146.175781 102.53125 45.960938 42.425781-42.425781-53.035157-53.035157zm0 0" fill="#d2d2d2"/><path d="m415.820312 96.675781-53.03125-53.03125-42.425781 42.425781 24.746094 81.316407zm0 0" fill="#e4e4e4"/><path d="m373.394531 139.101562-170.789062 114.222657-114.21875 170.785156 53.035156 53.035156 285.007813-285.007812zm0 0" fill="#fbd141"/><path d="m320.359375 86.070312 53.035156 53.03125-285.003906 285.003907-53.035156-53.03125zm0 0" fill="#fbf24a"/><g fill="#242424"><path d="m241 482.5h30v30h-30zm0 0"/><path d="m301 482.5h30v30h-30zm0 0"/><path d="m181 482.5h30v30h-30zm0 0"/></g></svg>