<svg id="Capa_1" enable-background="new 0 0 512 512" height="512" viewBox="0 0 512 512" width="512" xmlns="http://www.w3.org/2000/svg"><g><g><path d="m92 140 14-95 283-13 23 108z" fill="#e4b236"/><g><path d="m110 148 20-148 182 6 68 68 18 74z" fill="#ecedde"/><path d="m312 78 68-4-68-68z" fill="#c2c2b5"/></g><path d="m51 400 410 10-32-285-260-1-7-42h-85z" fill="#f7e372"/><path d="m276.839 315.552-7.208-89.701 24.369-1.851v25h35l-4-50-138 12-6 40h34v-21l30.307-2.302-6.339 88.755-22.968.547-5 30 98-3-9-29z" fill="#e4b236"/></g><path d="m438 488s-81.484 24-182 24-182-24-182-24 73.484-28 174-28 190 28 190 28z" fill="#ecedde"/></g></svg>