<?xml version="1.0" encoding="utf-8"?>
<!-- Svg Vector Icons : http://www.onlinewebfonts.com/icon -->
<!DOCTYPE svg PUBLIC "-//W3C//DTD SVG 1.1//EN" "http://www.w3.org/Graphics/SVG/1.1/DTD/svg11.dtd">
<svg version="1.1" xmlns="http://www.w3.org/2000/svg" xmlns:xlink="http://www.w3.org/1999/xlink" x="0px" y="0px" viewBox="0 0 1000 1000" enable-background="new 0 0 1000 1000" xml:space="preserve">
<metadata> Svg Vector Icons : http://www.onlinewebfonts.com/icon </metadata>
<g><g transform="translate(0.000000,511.000000) scale(0.100000,-0.100000)"><path d="M1534.2,4958.8c-46.9-27.7-104.4-83.1-127.8-123.6c-42.6-70.3-42.6-108.6-42.6-4727.4v-4655l53.3-78.8c27.7-42.6,87.3-95.9,130-119.3c78.8-44.7,89.5-44.7,3449.2-44.7c3359.7,0,3370.4,0,3449.2,44.7c42.6,23.4,102.3,76.7,129.9,119.3l53.3,78.8l6.4,2876.1c4.3,2006.9-2.1,2933.6-17.1,3059.3c-12.8,100.1-49,253.5-76.7,340.9c-115.1,345.1-121.4,351.5-1497.7,1727.8L5773.8,4726.6l-223.7,108.6c-375,181.1-296.1,174.7-2230.6,174.7H1619.4L1534.2,4958.8z M5187.9,4208.9c253.5-121.4,411.2-302.5,490-558.2c38.4-121.4,42.6-198.1,42.6-688.1c0-600.8,6.4-641.3,119.3-747.8c102.3-95.9,151.3-102.3,698.8-102.3c285.5,0,571-10.7,632.7-21.3c375-70.3,673.2-394.1,724.4-784c8.5-78.8,17.1-1318.7,19.2-2756.8v-2616.2H4996.2H2077.5V110v4177.8l1487-6.4l1484.9-6.4L5187.9,4208.9z M6807,3188.5l349.4-351.5h-355.8h-355.8v351.5c0,193.9,2.1,351.5,6.4,351.5C6453.4,3540,6613.2,3382.3,6807,3188.5z"/><path d="M3091.5,1151.8l-55.4-42.6V110v-999.2l55.4-42.6c51.1-40.5,85.2-44.7,370.7-44.7c372.8,0,462.3,23.4,617.8,164c200.3,181.1,202.4,183.2,208.8,875.6c8.5,709.4,0,754.2-172.6,935.3c-157.7,168.3-257.8,198.1-651.9,198.1C3176.8,1196.5,3142.7,1192.2,3091.5,1151.8z M3858.5,744.8l72.4-80.9V110v-553.9l-72.4-81c-72.4-78.8-74.6-78.8-266.3-85.2l-193.9-8.5V110v728.6l193.9-8.5C3783.9,823.7,3786.1,823.7,3858.5,744.8z"/><path d="M4998.3,1145.4c-38.4-40.5-98-245-281.2-975.7c-127.8-507-232.2-950.2-232.2-982.1c0-85.2,85.2-164,181.1-164c112.9,0,166.2,70.3,213,277l38.3,172.6l202.4-6.4l202.4-6.4l46.9-181.1c53.3-193.9,100.1-255.6,200.3-255.6c72.4,0,149.1,53.3,174.7,119.3c29.8,80.9-438.9,1938.7-504.9,2004.7C5170.8,1213.5,5062.2,1213.5,4998.3,1145.4z M5175.1,56.7c19.2-81,40.5-166.2,46.8-185.4c10.7-34.1-4.2-38.3-98-38.3c-104.4,0-110.8,2.1-98,49c6.4,25.6,27.7,117.2,49,202.4c19.2,85.2,42.6,147,49,138.5C5132.5,212.2,5155.9,139.8,5175.1,56.7z"/><path d="M5752.5,1143.2c-53.3-51.1-68.2-138.5-40.5-213c23.4-59.6,127.8-95.9,285.5-95.9h149.1V3.5c0-875.6,6.4-931,95.9-967.2c74.6-27.7,161.9-12.8,213.1,40.5l53.3,51.1v854.3v852.2h149.1c157.7,0,262,36.2,285.5,95.9c27.7,74.6,12.8,161.9-40.5,213l-51.1,53.3h-524.1h-524.1L5752.5,1143.2z"/></g></g>
</svg>