<svg id="Layer_1" enable-background="new 0 0 512.005 512.005" height="512" viewBox="0 0 512.005 512.005" width="512" xmlns="http://www.w3.org/2000/svg"><g><path d="m193.58 379.547s-13.572 11.472-46.432 39.245-40.94 58.333-40.94 58.333-2.997 11.262-15.534 21.859c-22.882 19.34-57.437 16.848-77.18-5.567s-17.199-56.264 5.683-75.604l119.295-100.83z" fill="#ffa100"/><path d="m147.148 418.792c32.86-27.774 46.432-39.245 46.432-39.245l-27.303-30.997-159.222 135.835c1.791 3.159 3.934 6.188 6.439 9.032 19.743 22.415 54.298 24.907 77.18 5.567 12.537-10.596 15.534-21.859 15.534-21.859s8.081-30.559 40.94-58.333z" fill="#ff9100"/><path d="m209.695 397.842 220.349-186.196c134.589-109.484 62.234-189.68 45.654-206.702-1.788-1.836-4.728-1.966-6.687-.305l-346.654 294.05z" fill="#f9f9f9"/><g><path d="m153.871 358.637c-.017-.019-.033-.037-.05-.056-5.816-6.603-5.067-16.575 1.674-22.272l126.82-107.191c6.722-5.681 16.863-4.967 22.687 1.584.017.019.033.037.05.056 5.816 6.603 5.067 16.575-1.674 22.272l-126.82 107.191c-6.722 5.681-16.863 4.967-22.687-1.584z" fill="#eceae7"/></g><path d="m75.791 414.952c-12.744-7.813-26.021-11.385-38.365-12.564l-18.249 15.424c-6.313 5.336-11.069 11.779-14.245 18.778 11.37-3.063 34.273-6.81 53.754 5.133 26.37 16.166 36.367 45.669 38.076 51.309 7.467-8.472 9.446-15.908 9.446-15.908s2.259-8.533 9.233-20.675c-8.118-13.917-20.733-29.899-39.65-41.497z" fill="#ffe494"/><g><path d="m58.687 441.725c-19.481-11.943-42.385-8.196-53.754-5.133-8.336 18.372-5.734 40.595 8.562 56.826 19.743 22.415 54.298 24.907 77.18 5.567 2.35-1.986 4.365-3.996 6.087-5.95-1.708-5.64-11.705-35.144-38.075-51.31z" fill="#ff7038"/></g><path d="m105.7 344.695-24.41 20.633 55.55 63.065c3.137-3.202 6.559-6.417 10.321-9.597 4.99-4.218 9.529-8.054 13.649-11.536z" fill="#e45c00"/><path d="m506.826 58.026-340.548 290.525 43.417 49.292 220.349-186.196c77.565-63.098 86.395-116.466 76.782-153.621z" fill="#f4f1f1"/><path d="m305.052 230.757-.05-.056c-.085-.096-.18-.178-.267-.271l-150.598 128.478c5.862 6.287 15.797 6.911 22.421 1.313l126.82-107.191c6.741-5.698 7.49-15.669 1.674-22.273z" fill="#e7dfdd"/><path d="m133.63 376.403-24.314 20.742 27.524 31.247c3.137-3.202 6.559-6.417 10.321-9.597 4.99-4.218 9.529-8.054 13.649-11.536z" fill="#b34f03"/><path d="m115.444 456.447c-7.059-12.102-17.524-25.761-32.569-36.745l-25.149 21.455c.321.188.644.368.964.564 26.369 16.166 36.367 45.669 38.076 51.309 7.467-8.472 9.446-15.908 9.446-15.908s2.259-8.532 9.232-20.675z" fill="#fac46d"/><path d="m58.687 441.725c-.32-.196-.643-.377-.965-.565l-50.662 43.221c1.791 3.16 3.93 6.192 6.436 9.037 19.743 22.415 54.298 24.907 77.18 5.567 2.35-1.986 4.365-3.996 6.087-5.95-1.709-5.64-11.706-35.144-38.076-51.31z" fill="#ff4a4a"/><path d="m479.771 1.469c-1.788-1.836-4.728-1.966-6.687-.305l-157.374 133.502-.079.665 6.649 41.495c2.174 13.567 15.164 22.839 29.014 20.709 13.85-2.13 26.84 7.142 29.014 20.709l4.995 31.171.008.031 44.734-37.801c134.588-109.483 66.306-193.154 49.726-210.176z" fill="#ff4a4a"/><path d="m509.32 55.898-166.011 141.625c2.577.407 5.261.434 7.98.016 13.85-2.13 26.84 7.142 29.014 20.709l4.995 31.171.007.031 44.734-37.801c77.566-63.096 87.748-117.618 79.281-155.751z" fill="#c30047"/><g><path d="m218.665 432.198c-.017-.019-.033-.037-.05-.056l-129.588-147.121c-5.816-6.603-5.067-16.575 1.674-22.272 6.722-5.681 16.863-4.967 22.687 1.584.017.019.033.037.05.056l129.588 147.121c5.816 6.603 5.067 16.575-1.674 22.272-6.722 5.681-16.863 4.967-22.687-1.584z" fill="#e45c00"/></g><path d="m243.026 411.51-64.591-73.33-24.314 20.742 64.494 73.22.05.056c5.824 6.551 15.965 7.265 22.687 1.584 6.74-5.697 7.49-15.669 1.674-22.272z" fill="#b34f03"/></g></svg>