<?xml version="1.0" encoding="iso-8859-1"?>
<!-- Generator: Adobe Illustrator 19.0.0, SVG Export Plug-In . SVG Version: 6.00 Build 0)  -->
<svg version="1.1" id="Capa_1" xmlns="http://www.w3.org/2000/svg" xmlns:xlink="http://www.w3.org/1999/xlink" x="0px" y="0px"
	 viewBox="0 0 451.952 451.952" style="enable-background:new 0 0 451.952 451.952;" xml:space="preserve">
<polygon style="fill:#FFF0B1;" points="128,225.976 0,225.976 64,289.976 "/>
<path style="fill:#FFE67D;" d="M368.696,145.28c11.552-11.552,12.888-30.2,2.384-42.704c-35.216-41.944-88.032-68.6-147.08-68.6
	c-106.04,0-192,85.96-192,192h64c0-70.696,57.304-128,128-128c39.192,0,74.216,17.648,97.672,45.408
	C333.744,157.68,355.472,158.504,368.696,145.28L368.696,145.28z"/>
<polygon style="fill:#B9C8FF;" points="323.952,225.976 451.952,225.976 387.952,161.976 "/>
<path style="fill:#597BF9;" d="M83.256,306.672c-11.552,11.552-12.888,30.2-2.384,42.704c35.216,41.944,88.032,68.6,147.08,68.6
	c106.04,0,192-88,192-192h-64c0,72-57.304,128-128,128c-39.192,0-74.216-17.648-97.672-45.408
	C118.208,294.272,96.48,293.448,83.256,306.672L83.256,306.672z"/>
<g>
</g>
<g>
</g>
<g>
</g>
<g>
</g>
<g>
</g>
<g>
</g>
<g>
</g>
<g>
</g>
<g>
</g>
<g>
</g>
<g>
</g>
<g>
</g>
<g>
</g>
<g>
</g>
<g>
</g>
</svg>
