<?xml version="1.0" encoding="iso-8859-1"?>
<!-- Generator: Adobe Illustrator 19.0.0, SVG Export Plug-In . SVG Version: 6.00 Build 0)  -->
<svg version="1.1" id="Capa_1" xmlns="http://www.w3.org/2000/svg" xmlns:xlink="http://www.w3.org/1999/xlink" x="0px" y="0px"
	 viewBox="0 0 512 512" style="enable-background:new 0 0 512 512;" xml:space="preserve">
<path style="fill:#C0AB91;" d="M304.169,440.27h-96.347c-19.213,0-32.247-19.556-24.833-37.286l4.811-11.52l19.286-46.11h97.819
	l19.462,46.556l4.635,11.074C336.416,420.713,323.382,440.27,304.169,440.27z"/>
<path style="fill:#B39A7C;" d="M324.367,391.909l-41.237,26.264c-4.023,2.561-8.368,4.521-12.909,5.838
	c-4.531,1.317-9.249,2.001-14.019,2.001c-9.622,0-19.047-2.768-27.135-7.974L187.8,391.463l19.286-46.11h97.819L324.367,391.909z"/>
<path style="fill:#D9CCBC;" d="M493.596,256.057L283.13,390.094c-4.023,2.561-8.368,4.521-12.909,5.838
	c-4.531,1.317-9.249,2.001-14.019,2.001c-9.622,0-19.047-2.768-27.135-7.974L18.456,254.347C6.47,246.745,0,233.857,0,220.74
	c0-8.088,2.447-16.248,7.59-23.319c2.24-3.08,4.821-5.734,7.673-7.963c14.288-11.188,35.026-11.489,49.76,0.664l18.488,15.242
	l-15.014-18.135c-14.693-17.762-11.261-44.285,7.538-57.702c18.633-13.293,44.721-7.652,57.018,11.655l12.463,19.566l-8.679-21.889
	c-8.492-21.432,2.976-45.592,24.999-52.539c21.826-6.895,44.897,6.543,50.62,28.701l5.807,22.459l-1.483-23.506
	c-0.052-0.861-0.083-1.711-0.083-2.561c0-21.743,17.668-39.681,39.744-39.681c22.905,0,41.071,19.307,39.671,42.17l-1.472,23.921
	l5.858-22.811c4.624-18.042,20.852-29.873,38.468-29.873c4.075,0,8.212,0.632,12.308,1.96c21.785,7.072,33.087,31.055,24.688,52.362
	l-8.782,22.293l12.608-19.877c7.6-11.986,20.489-18.456,33.605-18.456c8.088,0,16.248,2.447,23.319,7.59
	c18.529,13.459,21.878,39.764,7.3,57.433l-15.242,18.488l18.135-15.014c17.668-14.62,44.016-11.292,57.495,7.258
	c2.074,2.841,3.702,5.869,4.915,8.99C516.014,225.376,509.958,245.636,493.596,256.057z"/>
<path style="fill:#EBE5DD;" d="M509.316,208.164c-1.047,0.767-2.167,1.503-3.339,2.219L295.5,344.421
	c-8.046,5.122-17.388,7.839-26.928,7.839c-9.622,0-19.037-2.768-27.135-7.974c0,0-210.321-135.437-210.611-135.624
	c-8.077-5.205-12.992-11.81-15.564-19.203c14.288-11.188,35.026-11.489,49.76,0.664l18.488,15.242l-15.014-18.135
	c-14.693-17.762-11.261-44.285,7.538-57.702c18.633-13.293,44.721-7.652,57.018,11.655l12.463,19.566l-8.679-21.889
	c-8.492-21.432,2.976-45.592,24.999-52.539c21.826-6.895,44.897,6.543,50.62,28.701l5.807,22.459l-1.483-23.506
	c-0.052-0.861-0.083-1.711-0.083-2.561c0-21.743,17.668-39.681,39.744-39.681c22.905,0,41.071,19.307,39.671,42.17l-1.472,23.921
	l5.858-22.811c4.624-18.042,20.852-29.873,38.468-29.873c4.075,0,8.212,0.632,12.308,1.96c21.785,7.072,33.087,31.055,24.688,52.362
	l-8.782,22.293l12.608-19.877c7.6-11.986,20.489-18.456,33.605-18.456c8.088,0,16.248,2.447,23.319,7.59
	c18.529,13.459,21.878,39.764,7.3,57.433l-15.242,18.488l18.135-15.014c17.668-14.62,44.016-11.292,57.495,7.258
	C506.474,202.014,508.102,205.042,509.316,208.164z"/>
<g>
	<path style="fill:#D9CCBC;" d="M210.778,286.26c-2.739,0-5.394-1.447-6.812-4.015l-37.13-67.148
		c-2.078-3.759-0.715-8.49,3.043-10.568c3.757-2.078,8.49-0.716,10.568,3.043l37.13,67.148c2.078,3.759,0.715,8.49-3.043,10.568
		C213.341,285.947,212.05,286.26,210.778,286.26z M158.596,191.889c-2.739,0-5.394-1.447-6.812-4.015l-33.693-60.93
		c-2.078-3.759-0.715-8.49,3.043-10.568c3.756-2.077,8.49-0.716,10.568,3.043l33.693,60.93c2.078,3.759,0.715,8.49-3.043,10.568
		C161.16,191.576,159.869,191.889,158.596,191.889z"/>
	<path style="fill:#D9CCBC;" d="M147.491,274.419c-1.934,0-3.871-0.716-5.379-2.161L48.487,182.83
		c-3.101-2.971-3.207-7.894-0.236-10.995c2.97-3.1,7.892-3.209,10.995-0.236l93.625,89.428c3.101,2.971,3.207,7.894,0.236,10.995
		C151.582,273.616,149.538,274.419,147.491,274.419z"/>
	<path style="fill:#D9CCBC;" d="M323.281,315.159c-2.054,0-4.105-0.809-5.634-2.415c-2.96-3.111-2.839-8.033,0.272-10.995
		l60.228-57.333c3.111-2.959,8.033-2.839,10.995,0.272c2.96,3.111,2.839,8.033-0.272,10.995l-60.228,57.333
		C327.136,314.447,325.206,315.159,323.281,315.159z M406.039,236.378c-2.054,0-4.105-0.809-5.634-2.415
		c-2.96-3.111-2.839-8.033,0.272-10.995l54.045-51.039c3.11-2.96,8.033-2.839,10.995,0.272c2.96,3.111,2.839,8.033-0.272,10.995
		L411.4,234.234C409.895,235.667,407.965,236.378,406.039,236.378z"/>
	<path style="fill:#D9CCBC;" d="M317.609,262.909c-1.229,0-2.476-0.292-3.637-0.908c-3.794-2.013-5.238-6.72-3.226-10.515
		l35.954-67.784c2.012-3.793,6.718-5.24,10.515-3.226c3.794,2.013,5.238,6.72,3.226,10.515l-35.954,67.784
		C323.09,261.408,320.395,262.909,317.609,262.909z M368.137,167.645c-1.229,0-2.476-0.292-3.637-0.908
		c-3.794-2.013-5.238-6.72-3.226-10.515l18.886-36.685c2.01-3.792,6.718-5.238,10.515-3.226c3.794,2.013,5.238,6.72,3.226,10.515
		l-18.886,36.685C373.618,166.143,370.924,167.645,368.137,167.645z"/>
	<path style="fill:#D9CCBC;" d="M234.892,243.967c-3.737,0-7.032-2.7-7.664-6.507L203.204,95.527
		c-0.702-4.237,2.165-8.24,6.403-8.942c4.237-0.705,8.24,2.165,8.942,6.403l24.026,141.932c0.702,4.237-2.165,8.24-6.403,8.942
		C235.742,243.932,235.314,243.967,234.892,243.967z"/>
	<path style="fill:#D9CCBC;" d="M278.242,243.967c-0.428,0-0.863-0.035-1.299-0.108c-4.236-0.713-7.091-4.725-6.379-8.96
		l23.164-139.054c0.713-4.237,4.724-7.09,8.96-6.379c4.236,0.713,7.091,4.725,6.379,8.96L285.902,237.48
		C285.262,241.278,281.97,243.967,278.242,243.967z"/>
</g>
<g>
</g>
<g>
</g>
<g>
</g>
<g>
</g>
<g>
</g>
<g>
</g>
<g>
</g>
<g>
</g>
<g>
</g>
<g>
</g>
<g>
</g>
<g>
</g>
<g>
</g>
<g>
</g>
<g>
</g>
</svg>
