<svg id="Layer_1" enable-background="new 0 0 24 24" height="512" viewBox="0 0 24 24" width="512" xmlns="http://www.w3.org/2000/svg" xmlns:xlink="http://www.w3.org/1999/xlink" xmlns:svg="http://www.w3.org/2000/svg"><linearGradient id="linearGradient4485" gradientTransform="matrix(0 1.331 1.329 0 -4423.693 -679.203)" gradientUnits="userSpaceOnUse" x1="510.993" x2="527.557" y1="3337.175" y2="3337.175"><stop id="stop1327" offset="0" stop-color="#ff4ae0"/><stop id="stop1329" offset="1" stop-color="#6b0082"/></linearGradient><path id="path16" d="m15.324272 20.386041c.488606-.95847.874464-2.103156 1.151465-3.367735h3.0058c-1.007516 1.504096-2.456451 2.688791-4.157265 3.367735zm-10.8056753-3.367735h3.0056664c.2770005 1.264579.6629937 2.409265 1.1515987 3.367735-1.7008142-.678944-3.1500155-1.863639-4.1572651-3.367735zm4.1572651-13.3776311c-.488605.9584692-.8745982 2.1031562-1.1515987 3.3544426h-3.0056664c1.0072496-1.490937 2.4564509-2.6754992 4.1572651-3.3544426zm10.8056752 3.3544426h-3.0058c-.277001-1.2512864-.66286-2.3959734-1.151465-3.3544426 1.700814.6789434 3.14975 1.8635056 4.157265 3.3544426zm-2.663138 2.0099811h3.66042c.333889.9450445.52529 1.9566814.52529 3.0081924 0 1.051645-.191401 2.063281-.52529 3.008326h-3.66042c.122284-.998345.183825-2.009982.183825-3.008326 0-1.011636-.06114-2.0232725-.183825-3.0081924zm-4.818397-6.0166506c.79179 0 1.81313 1.4775127 2.437045 4.0066695h-4.8740925c.6239175-2.5291568 1.6452565-4.0066695 2.4370475-4.0066695zm-9.0041105 9.024843c0-1.051511.1915341-2.0631479.5254239-3.0081924h3.6602864c-.1222846.9849197-.1838255 1.9965564-.1838255 3.0081924 0 .998344.061139 2.009981.1838255 3.008326h-3.6602864c-.3338898-.945045-.5254239-1.956681-.5254239-3.008326zm6.1938301 3.008326c-.1209543-.918461-.1910027-1.930097-.1910027-3.008326 0-1.091387.07045-2.0897317.1910027-3.0081924h5.6205574c.119626.9184607.191137 1.9168054.191137 3.0081924 0 1.078229-.07045 2.089865-.191137 3.008326zm2.8102804 6.003359c-.791791 0-1.81313-1.477513-2.4370475-4.00667h4.8740925c-.623915 2.529157-1.645255 4.00667-2.437045 4.00667zm10.999998-9.024977c0-1.557396-.330432-3.0482008-.918062-4.3926623-1.700945-3.8867783-5.577224-6.61557793-10.081936-6.61557793-4.5045816 0-8.3809921 2.72879963-10.0819398 6.61557793-.5286364 1.5037842-.9072869 3.0549573-.918062 4.3926623 0 1.557397.3305662 3.048334.918062 4.392663 1.7009477 3.886912 5.5773582 6.615579 10.0819398 6.615579 4.504712 0 8.380991-2.728667 10.081936-6.615579.58763-1.344329.918062-2.835266.918062-4.392663z" fill="url(#linearGradient4485)"/></svg>